<?xml version="1.0" encoding="UTF-8"?>
<svg width="24px" height="24px" viewBox="0 0 24 24" version="1.1" xmlns="http://www.w3.org/2000/svg" xmlns:xlink="http://www.w3.org/1999/xlink">
    <title>ic_candado</title>
    <defs>
        <path d="M13.1491366,14.6666667 L13.1491366,18.3589744 C13.1491366,18.8687897 12.735875,19.2820513 12.2260597,19.2820513 C11.7162443,19.2820513 11.3029827,18.8687897 11.3029827,18.3589744 L11.3029827,14.6666667 C11.3029827,14.1568513 11.7162443,13.7435897 12.2260597,13.7435897 C12.735875,13.7435897 13.1491366,14.1568513 13.1491366,14.6666667 L13.1491366,14.6666667 Z M18.6875981,22.1538462 L5.76452119,22.1538462 L5.76452119,11.0769231 L6.68759812,11.0769231 L17.7645212,11.0769231 L18.6875981,11.0769231 L18.6875981,22.1538462 Z M7.61067504,6.46153846 C7.61067504,3.91661538 9.68113658,1.84615385 12.2260597,1.84615385 C14.7710289,1.84615385 16.8414443,3.91661538 16.8414443,6.46153846 L16.8414443,9.23076923 L7.61067504,9.23076923 L7.61067504,6.46153846 Z M19.610675,9.23076923 L18.6875981,9.23076923 L18.6875981,6.46153846 C18.6875981,2.89864615 15.788952,0 12.2260597,0 C8.66316735,0 5.76452119,2.89864615 5.76452119,6.46153846 L5.76452119,9.23076923 L4.84144427,9.23076923 C4.33162889,9.23076923 3.91836735,9.64403077 3.91836735,10.1538462 L3.91836735,23.0769231 C3.91836735,23.5867385 4.33162889,24 4.84144427,24 L19.610675,24 C20.1204904,24 20.533752,23.5867385 20.533752,23.0769231 L20.533752,10.1538462 C20.533752,9.64403077 20.1204904,9.23076923 19.610675,9.23076923 L19.610675,9.23076923 Z" id="path-1"></path>
    </defs>
    <g id="UX-Design" stroke="none" stroke-width="1" fill="none" fill-rule="evenodd">
        <g id="Artboard" transform="translate(-199.000000, -87.000000)">
            <g id="ic_candado" transform="translate(199.000000, 87.000000)">
                <mask id="mask-2" fill="white">
                    <use xlink:href="#path-1"></use>
                </mask>
                <use id="Fill-1" fill="#000000" xlink:href="#path-1"></use>
            </g>
        </g>
    </g>
</svg>