<?xml version="1.0" encoding="UTF-8"?>
<svg width="24px" height="24px" viewBox="0 0 24 24" version="1.1" xmlns="http://www.w3.org/2000/svg" xmlns:xlink="http://www.w3.org/1999/xlink">
    <title>ic_doument</title>
    <defs>
        <path d="M16.2857637,13.7142363 C16.2857637,14.2286109 15.9428473,14.5715273 15.4288183,14.5715273 L5.14305468,14.5715273 C4.62833439,14.5715273 4.28541799,14.2286109 4.28541799,13.7142363 C4.28541799,13.1998617 4.62833439,12.857291 5.14305468,12.857291 L15.4288183,12.857291 C15.9428473,12.857291 16.2857637,13.1998617 16.2857637,13.7142363 L16.2857637,13.7142363 Z M16.2857637,18 C16.2857637,18.5143746 15.9428473,18.857291 15.4288183,18.857291 L5.14305468,18.857291 C4.62833439,18.857291 4.28541799,18.5143746 4.28541799,18 C4.28541799,17.4856254 4.62833439,17.142709 5.14305468,17.142709 L15.4288183,17.142709 C15.9428473,17.142709 16.2857637,17.4856254 16.2857637,18 L16.2857637,18 Z M16.2857637,9.42847266 C16.2857637,9.94284727 15.9428473,10.2857637 15.4288183,10.2857637 L5.14305468,10.2857637 C4.62833439,10.2857637 4.28541799,9.94284727 4.28541799,9.42847266 C4.28541799,8.91409806 4.62833439,8.57152734 5.14305468,8.57152734 L15.4288183,8.57152734 C15.9428473,8.57152734 16.2857637,8.91409806 16.2857637,9.42847266 L16.2857637,9.42847266 Z M22.2857637,18 C22.2857637,18.5143746 21.9428473,18.857291 21.4284727,18.857291 L20.5711817,18.857291 L20.5711817,6 C20.5711817,4.54295097 19.4573947,3.42847266 18,3.42847266 L5.14305468,3.42847266 L5.14305468,2.57152734 C5.14305468,2.05715273 5.4856254,1.71423633 6,1.71423633 L21.4284727,1.71423633 C21.9428473,1.71423633 22.2857637,2.05715273 22.2857637,2.57152734 L22.2857637,18 Z M18.8569453,21.4288183 C18.8569453,21.9428473 18.5143746,22.2857637 18,22.2857637 L2.57118166,22.2857637 C2.05715273,22.2857637 1.71423633,21.9428473 1.71423633,21.4288183 L1.71423633,6 C1.71423633,5.4856254 2.05715273,5.14270899 2.57118166,5.14270899 L18,5.14270899 C18.5143746,5.14270899 18.8569453,5.4856254 18.8569453,6 L18.8569453,21.4288183 Z M21.4284727,0 L6,0 C4.54260529,0 3.42847266,1.11413263 3.42847266,2.57152734 L3.42847266,3.42847266 L2.57118166,3.42847266 C1.11413263,3.42847266 0,4.54295097 0,6 L0,21.4288183 C0,22.8858674 1.11413263,24 2.57118166,24 L18,24 C19.4573947,24 20.5711817,22.8858674 20.5711817,21.4288183 L20.5711817,20.5715273 L21.4284727,20.5715273 C22.8858674,20.5715273 24,19.457049 24,18 L24,2.57152734 C24,1.11413263 22.8858674,0 21.4284727,0 L21.4284727,0 Z" id="path-1"></path>
    </defs>
    <g id="UX-Design" stroke="none" stroke-width="1" fill="none" fill-rule="evenodd">
        <g id="Artboard" transform="translate(-79.000000, -87.000000)">
            <g id="ic_document" transform="translate(79.000000, 87.000000)">
                <mask id="mask-2" fill="white">
                    <use xlink:href="#path-1"></use>
                </mask>
                <use id="Fill-1" fill="#000000" xlink:href="#path-1"></use>
            </g>
        </g>
    </g>
</svg>