<?xml version="1.0" encoding="UTF-8"?>
<svg width="24px" height="25px" viewBox="0 0 24 25" version="1.1" xmlns="http://www.w3.org/2000/svg" xmlns:xlink="http://www.w3.org/1999/xlink">
    <title>ic_helios_notification_alert</title>
    <defs>
        <path d="M7.34771248,2 C7.34736354,2.67692506 7.34438405,3.35385013 7.34943039,4.0307206 C7.35023565,4.13624023 7.31823974,4.18954593 7.22751306,4.23949444 C5.76241146,5.04639479 4.56575881,6.15497866 3.63148879,7.55771281 C3.58215281,7.63176215 3.56940275,7.69546697 3.59447338,7.78283591 C3.8632176,8.7199572 4.39992763,9.47690905 5.11508468,10.1096174 C6.16737991,11.0405702 7.40604061,11.5858823 8.75429807,11.8946896 C9.50188051,12.0659338 10.2586698,12.1487174 11.0266255,12.1384547 C11.7906085,12.1282467 12.5553431,12.1545583 13.3188699,12.1325864 C15.196241,12.0786257 16.9409848,11.5814061 18.4763593,10.4464286 C19.2822967,9.85064942 19.9163634,9.10527034 20.2866517,8.14964354 C20.4663066,7.68596856 20.4649645,7.68752434 20.1783971,7.28515228 C19.3444901,6.11414644 18.3180171,5.15849234 17.0950591,4.420046 C17.0465283,4.39073196 16.9891128,4.32326054 16.9886297,4.27303909 C16.9819191,3.58705233 16.9844423,2.90101098 16.9851134,2.21494234 C16.9851134,2.20195027 16.9898376,2.1889309 16.9973534,2.15041869 C18.2806527,2.74682568 19.418843,3.54174385 20.4137228,4.54529938 C22.2830681,6.43089638 23.4691986,8.69162576 23.8563438,11.3407798 C24.8081686,17.8537646 20.8617729,22.6123832 16.990616,24.3309393 C16.9881465,24.2773334 16.9840934,24.2301416 16.9840665,24.1829498 C16.9836639,23.5468843 16.9863213,22.9107914 16.9812749,22.2747532 C16.9804428,22.1700797 17.0127072,22.1133076 17.1013133,22.0601384 C18.4141927,21.2719619 19.4964707,20.2337153 20.3542404,18.9518675 C20.4181249,18.8564194 20.4303381,18.7749188 20.3972953,18.6647591 C20.1229411,17.7504831 19.5952232,17.0089525 18.8955273,16.3873529 C17.87351,15.4794092 16.6714621,14.9383277 15.3627969,14.6219872 C14.577367,14.4321556 13.7812806,14.3432854 12.9727395,14.353821 C12.1908528,14.3640018 11.4080265,14.3336778 10.6269181,14.3604808 C8.76954444,14.4242129 7.04176495,14.9212688 5.52413314,16.0478396 C4.65396232,16.6938129 3.98685283,17.5060084 3.6371525,18.5627877 C3.57823384,18.7408282 3.59087652,18.8740242 3.70076854,19.0335865 C4.6209464,20.3696954 5.77669151,21.4375016 7.18386762,22.2200282 C7.31303235,22.2918667 7.35326882,22.3658341 7.35136302,22.5110669 C7.34290773,23.1650102 7.34768564,23.8191173 7.34768564,24.5 C7.08903409,24.3757019 6.84090468,24.2673983 6.60246532,24.1402616 C3.30602697,22.382429 1.20114125,19.6667316 0.306785598,15.9938242 C0.00652861725,14.7606966 -0.0565774226,13.5027585 0.04515456,12.2361955 C0.244296929,9.75708468 1.12174199,7.55146243 2.64487645,5.61253243 C3.86560656,4.05858805 5.3798831,2.88561701 7.16942651,2.0809275 C7.22147356,2.05753631 7.27048744,2.0271305 7.32089711,2 L7.34771248,2 Z" id="path-1"></path>
    </defs>
    <g id="UX-Design" stroke="none" stroke-width="1" fill="none" fill-rule="evenodd">
        <g id="Artboard" transform="translate(-159.000000, -167.000000)">
            <g id="ic_helios_notification_alert" transform="translate(159.000000, 166.500000)">
                <mask id="mask-2" fill="white">
                    <use xlink:href="#path-1"></use>
                </mask>
                <use id="Fill-1" fill="#000000" xlink:href="#path-1"></use>
            </g>
        </g>
    </g>
</svg>