<?xml version="1.0" encoding="UTF-8"?>
<svg width="24px" height="24px" viewBox="0 0 24 24" version="1.1" xmlns="http://www.w3.org/2000/svg" xmlns:xlink="http://www.w3.org/1999/xlink">
    <title>ic_home</title>
    <defs>
        <path d="M23,20.0369503 C23,20.4617614 22.6541012,20.8079874 22.2286522,20.8079874 L9.07741293,20.8079874 C8.65228594,20.8079874 8.30638715,20.4617614 8.30638715,20.0369503 C8.30638715,19.6121391 8.65228594,19.2659132 9.07741293,19.2659132 L22.2286522,19.2659132 C22.6541012,19.2659132 23,19.6121391 23,20.0369503 M23,12 C23,12.4248111 22.6541012,12.770715 22.2286522,12.770715 L9.07741293,12.770715 C8.65228594,12.770715 8.30638715,12.4248111 8.30638715,12 C8.30638715,11.5751889 8.65228594,11.2289629 9.07741293,11.2289629 L22.2286522,11.2289629 C22.6541012,11.2289629 23,11.5751889 23,12 M8.30638715,3.96272765 C8.30638715,3.53759443 8.65228594,3.19169058 9.07741293,3.19169058 L22.2286522,3.19169058 C22.6541012,3.19169058 23,3.53759443 23,3.96272765 C23,4.38753879 22.6541012,4.73344264 22.2286522,4.73344264 L9.07741293,4.73344264 C8.65228594,4.73344264 8.30638715,4.38753879 8.30638715,3.96272765 M5.38396112,20.0369503 C5.38396112,20.8208702 4.74627062,21.4582479 3.96300634,21.4582479 C3.17941999,21.4582479 2.54205156,20.8208702 2.54205156,20.0369503 C2.54205156,19.2533525 3.17941999,18.6159747 3.96300634,18.6159747 C4.74627062,18.6159747 5.38396112,19.2533525 5.38396112,20.0369503 M3.96300634,17.0742226 C2.329166,17.0742226 1,18.4034081 1,20.0369503 C1,21.6708145 2.329166,23 3.96300634,23 C5.59652462,23 6.92569061,21.6708145 6.92569061,20.0369503 C6.92569061,18.4034081 5.59652462,17.0742226 3.96300634,17.0742226 M5.38396112,12 C5.38396112,12.7835978 4.74627062,13.4209756 3.96300634,13.4209756 C3.17941999,13.4209756 2.54205156,12.7835978 2.54205156,12 C2.54205156,11.2160801 3.17941999,10.5787023 3.96300634,10.5787023 C4.74627062,10.5787023 5.38396112,11.2160801 5.38396112,12 M3.96300634,9.03695028 C2.329166,9.03695028 1,10.3661357 1,12 C1,13.6335422 2.329166,14.9627276 3.96300634,14.9627276 C5.59652462,14.9627276 6.92569061,13.6335422 6.92569061,12 C6.92569061,10.3661357 5.59652462,9.03695028 3.96300634,9.03695028 M5.38396112,3.96272765 C5.38396112,4.7460034 4.74627062,5.38370323 3.96300634,5.38370323 C3.17941999,5.38370323 2.54205156,4.7460034 2.54205156,3.96272765 C2.54205156,3.17912982 3.17941999,2.54175206 3.96300634,2.54175206 C4.74627062,2.54175206 5.38396112,3.17912982 5.38396112,3.96272765 M3.96300634,1 C2.329166,1 1,2.32918545 1,3.96272765 C1,5.59626984 2.329166,6.92545529 3.96300634,6.92545529 C5.59652462,6.92545529 6.92569061,5.59626984 6.92569061,3.96272765 C6.92569061,2.32918545 5.59652462,1 3.96300634,1" id="path-1"></path>
    </defs>
    <g id="UX-Design" stroke="none" stroke-width="1" fill="none" fill-rule="evenodd">
        <g id="Artboard" transform="translate(-39.000000, -127.000000)">
            <g id="ic_home" transform="translate(39.000000, 127.000000)">
                <mask id="mask-2" fill="white">
                    <use xlink:href="#path-1"></use>
                </mask>
                <use id="Fill-1" fill="#000000" xlink:href="#path-1"></use>
            </g>
        </g>
    </g>
</svg>