<?xml version="1.0" encoding="UTF-8"?>
<svg width="24px" height="24px" viewBox="0 0 24 24" version="1.1" xmlns="http://www.w3.org/2000/svg" xmlns:xlink="http://www.w3.org/1999/xlink">
    <title>ic_image</title>
    <defs>
        <path d="M5.99986087,5.14278261 C6.51429565,5.14278261 6.85725217,5.48573913 6.85725217,5.99982609 C6.85725217,6.51426087 6.51429565,6.85721739 5.99986087,6.85721739 C5.48542609,6.85721739 5.14281739,6.51426087 5.14281739,5.99982609 C5.14281739,5.48573913 5.48542609,5.14278261 5.99986087,5.14278261 M5.99986087,8.57130435 C7.45690435,8.57130435 8.57168696,7.45721739 8.57168696,5.99982609 C8.57168696,4.54278261 7.45690435,3.42869565 5.99986087,3.42869565 C4.54316522,3.42869565 3.42838261,4.54278261 3.42838261,5.99982609 C3.42838261,7.45721739 4.54316522,8.57130435 5.99986087,8.57130435 M21.4283826,22.2857391 L7.88577391,22.2857391 L13.1142957,16.3713043 L18.4283826,10.3713043 C18.771687,10.0286957 19.2857739,10.0286957 19.6287304,10.2857391 L22.2857739,12.4286957 L22.2857739,21.4286957 C22.2857739,21.9427826 21.9428174,22.2857391 21.4283826,22.2857391 M1.71429565,21.4286957 L1.71429565,20.1431304 L7.28577391,13.8001739 C7.62873043,13.4572174 8.14281739,13.4572174 8.48542609,13.7142609 L11.2283826,15.9427826 L5.65725217,22.2857391 L2.57168696,22.2857391 C2.05725217,22.2857391 1.71429565,21.9427826 1.71429565,21.4286957 M2.57168696,1.71426087 L21.4283826,1.71426087 C21.9428174,1.71426087 22.2857739,2.05721739 22.2857739,2.57130435 L22.2857739,10.2001739 L20.6572522,8.91426087 C19.6287304,8.05721739 17.9998609,8.22869565 17.1428174,9.25721739 L12.3428174,14.6572174 L9.51429565,12.3427826 C8.48542609,11.4857391 6.85725217,11.5713043 5.99986087,12.5998261 L1.71429565,17.3998261 L1.71429565,2.57130435 C1.71429565,2.05721739 2.05725217,1.71426087 2.57168696,1.71426087 M21.4283826,-0.000173913043 L2.57168696,-0.000173913043 C1.11429565,-0.000173913043 -0.000139130435,1.11426087 -0.000139130435,2.57130435 L-0.000139130435,21.4286957 C-0.000139130435,22.8857391 1.11429565,23.9998261 2.57168696,23.9998261 L21.4283826,23.9998261 C22.8857739,23.9998261 23.9998609,22.8857391 23.9998609,21.4286957 L23.9998609,2.57130435 C23.9998609,1.11426087 22.8857739,-0.000173913043 21.4283826,-0.000173913043" id="path-1"></path>
    </defs>
    <g id="UX-Design" stroke="none" stroke-width="1" fill="none" fill-rule="evenodd">
        <g id="Artboard" transform="translate(-39.000000, -87.000000)">
            <g id="ic_image" transform="translate(39.000000, 87.000000)">
                <mask id="mask-2" fill="white">
                    <use xlink:href="#path-1"></use>
                </mask>
                <use id="Fill-1" fill="#000000" xlink:href="#path-1"></use>
            </g>
        </g>
    </g>
</svg>