<?xml version="1.0" encoding="UTF-8"?>
<svg width="24px" height="24px" viewBox="0 0 24 24" version="1.1" xmlns="http://www.w3.org/2000/svg" xmlns:xlink="http://www.w3.org/1999/xlink">
    <title>ic_info</title>
    <defs>
        <path d="M12,5.88888889 C12.4818,5.88888889 12.8721778,6.27951111 12.8721778,6.76106667 C12.8721778,7.24286667 12.4818,7.63324444 12,7.63324444 C11.5182,7.63324444 11.1280667,7.24286667 11.1280667,6.76106667 C11.1280667,6.27951111 11.5182,5.88888889 12,5.88888889 M11.9863111,10.2375556 C11.5054889,10.2448889 11.1212222,10.6404 11.1280667,11.1214667 L11.1280667,17.2264667 C11.1209778,17.7082667 11.5059778,18.1042667 11.9875333,18.1111111 C12.4693333,18.1179556 12.8653333,17.7329556 12.8721778,17.2511556 L12.8721778,17.2264667 L12.8721778,11.1214667 C12.8787778,10.6399111 12.4937778,10.2439111 12.0119778,10.2375556 C12.0036667,10.2373722 11.9948667,10.2373722 11.9863111,10.2375556 M12,21.7777778 L2.22222222,21.7777778 L2.22222222,12 C2.22222222,6.59997778 6.59997778,2.22222222 12,2.22222222 C17.4002667,2.22222222 21.7777778,6.59997778 21.7777778,12 C21.7777778,17.4002667 17.4002667,21.7777778 12,21.7777778 M12,1 C5.92775556,1.00684444 1.00684444,5.92775556 1,12 L1,23 L12,23 C18.0751778,23 23,18.0751778 23,12 C23,5.92482222 18.0751778,1 12,1" id="path-1"></path>
    </defs>
    <g id="UX-Design" stroke="none" stroke-width="1" fill="none" fill-rule="evenodd">
        <g id="Artboard" transform="translate(-159.000000, -87.000000)">
            <g id="ic_info" transform="translate(159.000000, 87.000000)">
                <mask id="mask-2" fill="white">
                    <use xlink:href="#path-1"></use>
                </mask>
                <use id="Fill-1" fill="#16191F" xlink:href="#path-1"></use>
            </g>
        </g>
    </g>
</svg>