<?xml version="1.0" encoding="UTF-8"?>
<svg width="24px" height="24px" viewBox="0 0 24 24" version="1.1" xmlns="http://www.w3.org/2000/svg" xmlns:xlink="http://www.w3.org/1999/xlink">
    <title>ic_notifications</title>
    <defs>
        <path d="M17.9743947,16.9115542 L18.5903882,16.9115542 C19.0402893,16.9115542 19.3923624,17.263896 19.3923624,17.7135283 C19.3923624,18.1636981 19.0402893,18.5165775 18.5903882,18.5165775 L4.97456571,18.5165775 C4.52466466,18.5165775 4.17259156,18.1636981 4.17259156,17.7135283 C4.17259156,17.263896 4.52466466,16.9115542 4.97456571,16.9115542 L5.59002174,16.9115542 C5.9122627,16.9107479 6.17537687,16.64844 6.1764519,16.3256615 L6.1764519,10.7255491 C6.1764519,7.63402477 8.69095263,5.11898654 11.7819395,5.11898654 C14.8734638,5.11898654 17.388502,7.63402477 17.388502,10.7255491 L17.388502,16.326199 C17.3898458,16.6479025 17.6524225,16.9102104 17.9743947,16.9115542 L17.9743947,16.9115542 Z M11.7819395,3.94397615 C11.2855433,3.94397615 10.8966503,3.55615823 10.8966503,3.06110582 C10.8966503,2.5641721 11.2855433,2.17501038 11.7819395,2.17501038 C12.2791419,2.17501038 12.6683036,2.5641721 12.6683036,3.06110582 C12.6683036,3.55562071 12.2794107,3.94343864 11.7819395,3.94397615 L11.7819395,3.94397615 Z M13.7446798,19.6915879 C13.7153852,20.8926678 12.7639815,21.8249896 11.5545701,21.8249896 C10.3456962,21.8249896 9.39456131,20.8926678 9.36553544,19.6915879 L13.7446798,19.6915879 Z M18.5903882,15.736275 L18.5635124,15.736275 L18.5635124,10.7255491 C18.5635124,7.61763053 16.4943439,4.95047521 13.5068289,4.17053923 C13.7274793,3.83539788 13.843314,3.4556427 13.843314,3.06110582 C13.843314,1.92452784 12.9185174,1 11.7819395,1 C10.6472428,1 9.72432749,1.92452784 9.72432749,3.06110582 C9.72432749,3.45537394 9.83962472,3.83512913 10.0600064,4.17053923 C7.07087884,4.94966894 5.00063525,7.61682426 5.00063525,10.7255491 L5.00063525,15.736275 L4.97456571,15.736275 C3.88582668,15.736275 3,16.6234455 3,17.7135283 C3,18.8041486 3.88582668,19.6915879 4.97456571,19.6915879 L8.18918127,19.6915879 C8.21981969,21.5210242 9.71760854,23 11.5545701,23 C13.3912629,23 14.8893205,21.5210242 14.919959,19.6915879 L18.5903882,19.6915879 C19.6807398,19.6915879 20.5673728,18.8041486 20.5673728,17.7135283 C20.5673728,16.6234455 19.6807398,15.736275 18.5903882,15.736275 L18.5903882,15.736275 Z" id="path-1"></path>
    </defs>
    <g id="UX-Design" stroke="none" stroke-width="1" fill="none" fill-rule="evenodd">
        <g id="Artboard" transform="translate(-119.000000, -127.000000)">
            <g id="ic_notifications" transform="translate(119.000000, 127.000000)">
                <mask id="mask-2" fill="white">
                    <use xlink:href="#path-1"></use>
                </mask>
                <use id="Fill-1" fill="#000000" xlink:href="#path-1"></use>
            </g>
        </g>
    </g>
</svg>