<?xml version="1.0" encoding="UTF-8"?>
<svg width="24px" height="24px" viewBox="0 0 24 24" version="1.1" xmlns="http://www.w3.org/2000/svg" xmlns:xlink="http://www.w3.org/1999/xlink">
    <title>ic_teams</title>
    <defs>
        <path d="M17.9844853,9.72987475 C17.9844853,8.82637097 18.7120726,8.0921657 19.6061479,8.0921657 C20.5014511,8.0921657 21.2280561,8.82661884 21.2280561,9.72987475 C21.2280561,10.632387 20.5014511,11.3668402 19.6061479,11.3668402 C18.7120726,11.3665923 17.9844853,10.6321392 17.9844853,9.72987475 M19.6063935,6.84634676 C18.0318779,6.84634676 16.7505582,8.14000554 16.7505582,9.72987475 C16.7505582,11.3192482 18.0318779,12.6124112 19.6063935,12.6124112 C20.2021163,12.6124112 20.7563399,12.4270009 21.2145504,12.1104647 C21.583378,12.3481767 21.7655818,12.6798332 21.7655818,13.121794 L21.7655818,16.7581179 C21.7655818,17.1019203 22.0418341,17.3807795 22.3826681,17.3807795 C22.7242388,17.3807795 23,17.1019203 23,16.7581179 L23,13.121794 C23,12.3233892 22.6689883,11.6588367 22.0631976,11.1935757 C22.3156309,10.7637607 22.4622288,10.264045 22.4622288,9.73012263 C22.4619832,8.14000554 21.1816457,6.84634676 19.6063935,6.84634676 M4.35603653,8.09191782 C5.25133967,8.09191782 5.97990917,8.82637097 5.97990917,9.72962688 C5.97990917,10.6321392 5.25133967,11.3665923 4.35603653,11.3665923 C3.46245229,11.3665923 2.73461946,10.6321392 2.73461946,9.72962688 C2.73461946,8.82637097 3.46245229,8.09191782 4.35603653,8.09191782 M1.61708666,17.3805316 C1.95816622,17.3805316 2.23392744,17.1016724 2.23392744,16.7581179 L2.23392744,13.1210504 C2.23392744,12.6862779 2.41048338,12.3590832 2.76776974,12.1233542 C3.22205137,12.4322062 3.76866267,12.6124112 4.35603653,12.6124112 C5.93202543,12.6124112 7.21383629,11.3192482 7.21383629,9.72987475 C7.21383629,8.14000554 5.93202543,6.84634676 4.35603653,6.84634676 C2.78225764,6.84634676 1.50142902,8.14000554 1.50142902,9.72987475 C1.50142902,10.2729685 1.65367475,10.7798726 1.91372029,11.2136535 C1.32266306,11.6774274 1.00000016,12.3342957 1.00000016,13.1210504 L1.00000016,16.7581179 C0.999754769,17.1016724 1.27600711,17.3805316 1.61708666,17.3805316 M8.82837774,8.41688173 C8.82837774,6.66812475 10.2373875,5.24581893 11.9693055,5.24581893 C13.7022057,5.24581893 15.1117065,6.66812475 15.1117065,8.41688173 C15.1117065,10.1661345 13.7022057,11.588936 11.9693055,11.588936 C10.2373875,11.588936 8.82837774,10.1661345 8.82837774,8.41688173 M16.6314627,21 C16.973279,21 17.2485491,20.7206451 17.2485491,20.3768427 L17.2485491,14.112054 C17.2485491,12.820874 16.6236049,11.7160958 15.5185955,10.9923013 C16.036231,10.266028 16.3458792,9.37814036 16.3458792,8.41663386 C16.3458792,5.98151145 14.3824003,4 11.9693055,4 C9.55694725,4 7.59420507,5.98151145 7.59420507,8.41663386 C7.59420507,9.38929472 7.91097442,10.2863538 8.44039668,11.0168409 C7.36117087,11.7344386 6.75169682,12.8317805 6.75169682,14.1123019 L6.75169682,20.3768427 C6.75169682,20.7206451 7.02794916,21 7.36902872,21 C7.71010827,21 7.9858695,20.7206451 7.9858695,20.3768427 L7.9858695,14.1125498 C7.9858695,13.167403 8.45292012,12.4195646 9.32906976,11.9310033 C10.0640238,12.4954143 10.9772526,12.8345071 11.969551,12.8345071 C12.9743729,12.8345071 13.8979151,12.4879781 14.6372892,11.9111733 C15.5247345,12.4044443 16.0148675,13.175335 16.0148675,14.112054 L16.0148675,20.3765948 C16.0148675,20.7206451 16.2911198,21 16.6314627,21" id="path-1"></path>
    </defs>
    <g id="UX-Design" stroke="none" stroke-width="1" fill="none" fill-rule="evenodd">
        <g id="Artboard" transform="translate(-79.000000, -127.000000)">
            <g id="ic_teams" transform="translate(79.000000, 127.000000)">
                <mask id="mask-2" fill="white">
                    <use xlink:href="#path-1"></use>
                </mask>
                <use fill="#000000" xlink:href="#path-1"></use>
            </g>
        </g>
    </g>
</svg>