<?xml version="1.0" encoding="UTF-8"?>
<svg width="24px" height="24px" viewBox="0 0 24 24" version="1.1" xmlns="http://www.w3.org/2000/svg" xmlns:xlink="http://www.w3.org/1999/xlink">
    <title>ic_time</title>
    <defs>
        <path d="M18.0433548,15.4322323 C17.899871,15.6804903 17.6397419,15.8195871 17.371871,15.8195871 C17.2407742,15.8195871 17.1076129,15.7860387 16.9855484,15.7158452 L11.5406452,12.5726194 C11.5329032,12.5679742 11.5269677,12.5620387 11.5194839,12.5573935 C11.496,12.5429419 11.4743226,12.5261677 11.4529032,12.5093935 C11.4338065,12.4944258 11.4144516,12.4799742 11.3974194,12.4634581 C11.3790968,12.4464258 11.3628387,12.427329 11.3465806,12.4084903 C11.3298065,12.3896516 11.3132903,12.371071 11.2985806,12.3506839 C11.2843871,12.3302968 11.2725161,12.3088774 11.259871,12.2872 C11.2474839,12.2657806 11.2348387,12.2448774 11.2247742,12.2224258 C11.2141935,12.1999742 11.2067097,12.1759742 11.1984516,12.1519742 C11.1901935,12.1282323 11.1819355,12.1047484 11.1762581,12.0804903 C11.1705806,12.0577806 11.1677419,12.0342968 11.1643871,12.0105548 C11.1605161,11.9829419 11.1569032,11.955071 11.156129,11.9269419 C11.155871,11.9184258 11.1535484,11.9106839 11.1535484,11.9019097 L11.1535484,3.95352258 C11.1535484,3.52565161 11.500129,3.17932903 11.9277419,3.17932903 C12.3553548,3.17932903 12.7019355,3.52565161 12.7019355,3.95352258 L12.7019355,11.4549419 L17.7597419,14.3744258 C18.1300645,14.5883613 18.2570323,15.0616516 18.0433548,15.4322323 M11.9277419,22.307071 C6.20464516,22.307071 1.5483871,17.6508129 1.5483871,11.9277161 C1.5483871,6.20461935 6.20464516,1.54836129 11.9277419,1.54836129 C17.6508387,1.54836129 22.3068387,6.20461935 22.3068387,11.9277161 C22.3068387,17.6508129 17.6508387,22.307071 11.9277419,22.307071 M11.9277419,-2.58064516e-05 C5.35070968,-2.58064516e-05 0,5.35094194 0,11.9277161 C0,18.5044903 5.35070968,23.8554581 11.9277419,23.8554581 C18.5045161,23.8554581 23.8552258,18.5044903 23.8552258,11.9277161 C23.8552258,5.35094194 18.5045161,-2.58064516e-05 11.9277419,-2.58064516e-05" id="path-1"></path>
    </defs>
    <g id="UX-Design" stroke="none" stroke-width="1" fill="none" fill-rule="evenodd">
        <g id="Artboard" transform="translate(-159.000000, -127.000000)">
            <g id="ic_time" transform="translate(159.000000, 127.000000)">
                <mask id="mask-2" fill="white">
                    <use xlink:href="#path-1"></use>
                </mask>
                <use id="Fill-1" fill="#000000" xlink:href="#path-1"></use>
            </g>
        </g>
    </g>
</svg>