<?xml version="1.0" encoding="UTF-8"?>
<svg width="24px" height="24px" viewBox="0 0 24 24" version="1.1" xmlns="http://www.w3.org/2000/svg" xmlns:xlink="http://www.w3.org/1999/xlink">
    <title>ic_video</title>
    <defs>
        <path d="M11.8581257,0 C5.35824,0 6.85714286e-05,5.35817143 6.85714286e-05,11.8580571 C6.85714286e-05,18.4460571 5.35824,23.8042286 11.8581257,23.8042286 C18.4461257,23.8042286 23.8042971,18.4460571 23.8042971,11.8580571 C23.8042971,5.35817143 18.4461257,0 11.8581257,0 M11.8581257,1.71428571 C17.49984,1.71428571 22.0900114,6.26468571 22.0900114,11.8580571 C22.0900114,17.5001143 17.49984,22.0899429 11.8581257,22.0899429 C6.26509714,22.0899429 1.71435429,17.5001143 1.71435429,11.8580571 C1.71435429,9.17211429 2.77618286,6.63154286 4.70372571,4.70365714 C6.63161143,2.77611429 9.17218286,1.71428571 11.8581257,1.71428571 M16.95264,11.3310857 L9.92544,6.49988571 C9.48658286,6.23657143 8.87149714,6.49988571 8.87149714,7.0272 L8.87149714,16.6892571 C8.87149714,17.304 9.48658286,17.4798857 9.92544,17.2162286 L16.95264,12.4728 C17.3921829,12.2094857 17.3921829,11.5947429 16.95264,11.3310857" id="path-1"></path>
    </defs>
    <g id="UX-Design" stroke="none" stroke-width="1" fill="none" fill-rule="evenodd">
        <g id="Artboard" transform="translate(-119.000000, -87.000000)">
            <g id="ic_video" transform="translate(119.000000, 87.000000)">
                <mask id="mask-2" fill="white">
                    <use xlink:href="#path-1"></use>
                </mask>
                <use id="Fill-1" fill="#000000" xlink:href="#path-1"></use>
            </g>
        </g>
    </g>
</svg>